G04*
G04 #@! TF.GenerationSoftware,Altium Limited,Altium Designer,22.0.2 (36)*
G04*
G04 Layer_Color=32896*
%FSLAX25Y25*%
%MOIN*%
G70*
G04*
G04 #@! TF.SameCoordinates,CB14B587-D8FD-4C8B-9FA0-E7DBCE3D7265*
G04*
G04*
G04 #@! TF.FilePolarity,Positive*
G04*
G01*
G75*
%ADD12C,0.00800*%
D12*
X5466Y6799D02*
X4133D01*
X4799D01*
Y3466D01*
X4133Y2800D01*
X3466D01*
X2800Y3466D01*
X6799Y6799D02*
Y2800D01*
X9465D01*
X13463Y6132D02*
X12797Y6799D01*
X11464D01*
X10797Y6132D01*
Y3466D01*
X11464Y2800D01*
X12797D01*
X13463Y3466D01*
X17462Y6799D02*
X16129D01*
X16795D01*
Y3466D01*
X16129Y2800D01*
X15463D01*
X14796Y3466D01*
X18795Y6799D02*
Y2800D01*
X21461D01*
X25459Y6132D02*
X24793Y6799D01*
X23460D01*
X22794Y6132D01*
Y3466D01*
X23460Y2800D01*
X24793D01*
X25459Y3466D01*
X29458Y6799D02*
X28125D01*
X28792D01*
Y3466D01*
X28125Y2800D01*
X27459D01*
X26792Y3466D01*
X30791Y6799D02*
Y2800D01*
X33457D01*
X37455Y6132D02*
X36789Y6799D01*
X35456D01*
X34790Y6132D01*
Y3466D01*
X35456Y2800D01*
X36789D01*
X37455Y3466D01*
X41454Y6799D02*
X40121D01*
X40788D01*
Y3466D01*
X40121Y2800D01*
X39455D01*
X38788Y3466D01*
X42787Y6799D02*
Y2800D01*
X45453D01*
X49452Y6132D02*
X48785Y6799D01*
X47452D01*
X46786Y6132D01*
Y3466D01*
X47452Y2800D01*
X48785D01*
X49452Y3466D01*
M02*
