M48
;Layer_Color=9474304
;FILE_FORMAT=2:4
INCH,TZ
;TYPE=PLATED
T1F00S00C0.0200
T2F00S00C0.0450
T3F00S00C0.1280
%
T01
X2250Y3200
X3750Y5900
Y8000
X8100Y8400
X9700
Y6200
X12200Y6900
Y9100
X13500Y4500
X15120Y1388
X5900Y2000
X17100Y800
X17332Y4332
X18000Y4055
X18668Y4332
X18945Y5000
X18668Y5668
X18000Y5945
X17332Y5668
X17055Y5000
T02
X1000Y3500
Y4500
Y5500
Y6500
X9800Y2000
Y1000
X10800
X11800
X12800
Y2000
X11800
X10800
T03
X18000Y5000
M30
