G04*
G04 #@! TF.GenerationSoftware,Altium Limited,Altium Designer,22.0.2 (36)*
G04*
G04 Layer_Physical_Order=1*
G04 Layer_Color=255*
%FSLAX25Y25*%
%MOIN*%
G70*
G04*
G04 #@! TF.SameCoordinates,BC18DBC4-700C-47F8-9E1E-1F16E9EA7A44*
G04*
G04*
G04 #@! TF.FilePolarity,Positive*
G04*
G01*
G75*
%ADD13C,0.01000*%
%ADD26R,0.11024X0.11024*%
%ADD27R,0.05118X0.03150*%
%ADD28R,0.03150X0.05118*%
%ADD29R,0.02165X0.04331*%
%ADD30R,0.02756X0.04724*%
%ADD31R,0.04331X0.01732*%
%ADD32R,0.07874X0.05906*%
%ADD33R,0.07874X0.14961*%
%ADD34R,0.05118X0.03543*%
%ADD35R,0.03543X0.05118*%
%ADD36C,0.02500*%
%ADD37C,0.02000*%
%ADD38C,0.01500*%
%ADD39R,0.17000X0.11000*%
%ADD40C,0.25000*%
%ADD41C,0.07000*%
%ADD42C,0.04400*%
G36*
X101767Y82472D02*
Y82173D01*
X107000D01*
Y63505D01*
X101767D01*
Y63505D01*
X99796Y63158D01*
X99401Y63842D01*
X98842Y64401D01*
X98158Y64796D01*
X97395Y65000D01*
X96605D01*
X95842Y64796D01*
X95158Y64401D01*
X94718Y63960D01*
X92359D01*
Y64312D01*
X85641D01*
Y59168D01*
X92359D01*
Y59780D01*
X94977D01*
X95158Y59599D01*
X95842Y59204D01*
X96605Y59000D01*
X97395D01*
X98158Y59204D01*
X98842Y59599D01*
X99401Y60158D01*
X99796Y60842D01*
X101767Y60472D01*
Y60172D01*
X107000D01*
Y52874D01*
X97126Y43000D01*
X93000D01*
Y16000D01*
X96328D01*
X96340Y15993D01*
X97434Y15700D01*
X98566D01*
X99660Y15993D01*
X99672Y16000D01*
X106328D01*
X106340Y15993D01*
X107434Y15700D01*
X108566D01*
X109660Y15993D01*
X109672Y16000D01*
X116328D01*
X116340Y15993D01*
X117434Y15700D01*
X118566D01*
X119660Y15993D01*
X119672Y16000D01*
X126328D01*
X126340Y15993D01*
X127434Y15700D01*
X128566D01*
X129660Y15993D01*
X129672Y16000D01*
X132000D01*
Y18328D01*
X132007Y18340D01*
X132300Y19434D01*
Y20566D01*
X132007Y21660D01*
X132000Y21672D01*
Y22000D01*
X131552Y22448D01*
X131441Y22640D01*
X130640Y23441D01*
X130448Y23552D01*
X125000Y29000D01*
Y35000D01*
X141000D01*
X141000Y29000D01*
X146000Y24000D01*
X158675Y24000D01*
Y16000D01*
X153330D01*
X153047Y16284D01*
X152363Y16679D01*
X151600Y16883D01*
X150810D01*
X150047Y16679D01*
X149363Y16284D01*
X149079Y16000D01*
X141000D01*
Y2039D01*
X70000D01*
Y13688D01*
X75745D01*
Y26312D01*
X70000D01*
Y79125D01*
X71169Y80641D01*
X76312D01*
Y81910D01*
X78847D01*
X79158Y81599D01*
X79842Y81204D01*
X80605Y81000D01*
X81395D01*
X82158Y81204D01*
X82842Y81599D01*
X83401Y82158D01*
X85293Y81436D01*
X85641Y81169D01*
Y81169D01*
X92359D01*
Y81780D01*
X94977D01*
X95158Y81599D01*
X95842Y81204D01*
X96605Y81000D01*
X97395D01*
X98158Y81204D01*
X98842Y81599D01*
X99401Y82158D01*
X99796Y82842D01*
X101767Y82472D01*
D02*
G37*
G36*
X69000Y45000D02*
X16000D01*
Y60000D01*
X2039D01*
Y97961D01*
X69000D01*
Y45000D01*
D02*
G37*
G36*
Y26312D02*
X63121D01*
Y22090D01*
X61152D01*
X60842Y22401D01*
X60158Y22796D01*
X59395Y23000D01*
X58605D01*
X57842Y22796D01*
X57158Y22401D01*
X56599Y21842D01*
X56204Y21158D01*
X56000Y20395D01*
Y19605D01*
X56204Y18842D01*
X56599Y18158D01*
X57158Y17599D01*
X57842Y17204D01*
X58605Y17000D01*
X59395D01*
X60158Y17204D01*
X60842Y17599D01*
X61152Y17910D01*
X63121D01*
Y13688D01*
X69000D01*
Y2039D01*
X26000D01*
Y35000D01*
X16000D01*
Y44184D01*
X44665D01*
Y41720D01*
X54139D01*
Y44184D01*
X69000D01*
Y26312D01*
D02*
G37*
G36*
X15000Y41000D02*
X2039D01*
Y59000D01*
X15000D01*
Y41000D01*
D02*
G37*
G36*
X197961Y2039D02*
X182000D01*
Y97961D01*
X197961D01*
Y2039D01*
D02*
G37*
G36*
X15000Y20000D02*
X25000D01*
Y2039D01*
X2039D01*
Y40000D01*
X15000D01*
Y20000D01*
D02*
G37*
%LPC*%
G36*
X32879Y86312D02*
X20255D01*
Y73688D01*
X32879D01*
Y77910D01*
X35348D01*
X35658Y77599D01*
X36342Y77204D01*
X37105Y77000D01*
X37895D01*
X38658Y77204D01*
X39342Y77599D01*
X39901Y78158D01*
X40296Y78842D01*
X40500Y79605D01*
Y80395D01*
X40296Y81158D01*
X39901Y81842D01*
X39342Y82401D01*
X38658Y82796D01*
X37895Y83000D01*
X37105D01*
X36342Y82796D01*
X35658Y82401D01*
X35348Y82090D01*
X32879D01*
Y86312D01*
D02*
G37*
G36*
X29335Y62808D02*
X19861D01*
Y55302D01*
X29335D01*
Y56910D01*
X35348D01*
X35658Y56599D01*
X36342Y56204D01*
X37105Y56000D01*
X37895D01*
X38658Y56204D01*
X39342Y56599D01*
X39901Y57158D01*
X40296Y57842D01*
X40500Y58605D01*
Y59395D01*
X40296Y60158D01*
X39901Y60842D01*
X39342Y61401D01*
X38658Y61796D01*
X37895Y62000D01*
X37105D01*
X36342Y61796D01*
X35658Y61401D01*
X35348Y61090D01*
X29335D01*
Y62808D01*
D02*
G37*
%LPD*%
D13*
X160000Y40000D02*
Y69921D01*
X163740Y19118D02*
Y36260D01*
X160000Y40000D02*
X163740Y36260D01*
X145984Y83937D02*
X160000Y69921D01*
X154181Y31866D02*
X160000Y26047D01*
Y9291D02*
Y26047D01*
X145000Y83937D02*
X145984D01*
X121268Y59280D02*
X133358D01*
X135819Y61740D01*
X137000D01*
X121268Y81279D02*
X133358D01*
X135819Y83740D01*
X137000D01*
X121268Y54161D02*
X130550D01*
X117000Y53000D02*
X121000Y49000D01*
X135819Y76260D02*
X137000D01*
X117000Y79914D02*
X118240Y81154D01*
X117000Y58000D02*
X118197Y59197D01*
X133358Y78720D02*
X135819Y76260D01*
X114181Y40618D02*
Y60681D01*
X146181Y61740D02*
X146181D01*
X130550Y76161D02*
X133524Y73188D01*
X118240Y81154D02*
X121142D01*
X143559Y32949D02*
X149472Y38862D01*
X121268Y76161D02*
X130550D01*
X152122Y38862D02*
X153000Y39740D01*
X144213Y54260D02*
X145000D01*
X113303Y39740D02*
X114181Y40618D01*
X121000Y39740D02*
Y49000D01*
X121268Y78720D02*
X133358D01*
X121142Y81154D02*
X121268Y81279D01*
X146181Y61740D02*
X153000Y54921D01*
X133524Y73188D02*
X141141D01*
X113000Y39740D02*
X113303D01*
X153000Y39740D02*
Y54921D01*
X144213Y76260D02*
X145000D01*
X149472Y38862D02*
X152122D01*
X130550Y54161D02*
X133524Y51188D01*
X117000Y53000D02*
Y58000D01*
X133524Y51188D02*
X141141D01*
X121185Y59197D02*
X121268Y59280D01*
X141141Y51188D02*
X144213Y54260D01*
X118197Y59197D02*
X121185D01*
X141141Y73188D02*
X144213Y76260D01*
X133358Y56721D02*
X135819Y54260D01*
X121268Y56721D02*
X133358D01*
X135819Y54260D02*
X137000D01*
X114181Y60681D02*
X117000Y63500D01*
Y79914D01*
X121000Y27000D02*
X128000Y20000D01*
X121000Y27000D02*
Y32260D01*
X113000Y25000D02*
X118000Y20000D01*
X113000Y25000D02*
Y32260D01*
X108000Y20000D02*
Y21071D01*
X105000Y24071D02*
Y32260D01*
Y24071D02*
X108000Y21071D01*
X97122Y32260D02*
X98000Y31382D01*
Y20000D02*
Y31382D01*
X111500Y49000D02*
Y63500D01*
X105000Y42500D02*
X111500Y49000D01*
X105000Y39740D02*
Y42500D01*
X98032Y40618D02*
Y42032D01*
X97000Y39740D02*
X97154D01*
X98032Y40618D01*
Y42032D02*
X109000Y53000D01*
Y60500D01*
X107773Y83727D02*
X109000Y82500D01*
X104844Y83727D02*
X107773D01*
X104732Y83839D02*
X104844Y83727D01*
X109000Y66000D02*
Y82500D01*
Y66000D02*
X111500Y63500D01*
X104844Y61727D02*
X107773D01*
X104732Y61839D02*
X104844Y61727D01*
X107773D02*
X109000Y60500D01*
D26*
X26567Y80000D02*
D03*
X47433D02*
D03*
X69433Y20000D02*
D03*
X48567D02*
D03*
D27*
X153000Y39937D02*
D03*
Y32063D02*
D03*
X121000D02*
D03*
Y39937D02*
D03*
X113000Y32063D02*
D03*
Y39937D02*
D03*
X105000Y32063D02*
D03*
Y39937D02*
D03*
X97000Y32063D02*
D03*
Y39937D02*
D03*
X145000Y61937D02*
D03*
Y54063D02*
D03*
X137000D02*
D03*
Y61937D02*
D03*
X145000Y83937D02*
D03*
Y76063D02*
D03*
X137000D02*
D03*
Y83937D02*
D03*
D28*
X66063Y76000D02*
D03*
X73937D02*
D03*
D29*
X138441Y31866D02*
D03*
X143559D02*
D03*
X141000Y40134D02*
D03*
D30*
X156260Y8882D02*
D03*
X160000D02*
D03*
X163740D02*
D03*
Y19118D02*
D03*
X156260D02*
D03*
D31*
X104732Y83839D02*
D03*
Y81279D02*
D03*
Y78720D02*
D03*
Y76161D02*
D03*
X121268Y83839D02*
D03*
Y81279D02*
D03*
Y78720D02*
D03*
Y76161D02*
D03*
X104732Y61839D02*
D03*
Y59280D02*
D03*
Y56721D02*
D03*
Y54161D02*
D03*
X121268Y61839D02*
D03*
Y59280D02*
D03*
Y56721D02*
D03*
Y54161D02*
D03*
D32*
X24598Y59055D02*
D03*
Y50000D02*
D03*
Y40945D02*
D03*
D33*
X49402Y50000D02*
D03*
D34*
X129000Y39740D02*
D03*
Y32260D02*
D03*
X89000Y83740D02*
D03*
Y76260D02*
D03*
X145000Y10260D02*
D03*
Y17740D02*
D03*
X89000Y61740D02*
D03*
Y54260D02*
D03*
D35*
X73740Y84000D02*
D03*
X66260D02*
D03*
X22260Y24000D02*
D03*
X29740D02*
D03*
X29740Y16000D02*
D03*
X22260D02*
D03*
D36*
X145522Y10781D02*
X146309D01*
X149047Y13519D02*
X150841D01*
X145000Y10260D02*
X145522Y10781D01*
X146309D02*
X149047Y13519D01*
X150841D02*
X151205Y13883D01*
X163868Y8000D02*
X171000D01*
X22260Y24000D02*
X22380Y24120D01*
Y31880D02*
X22500Y32000D01*
X22380Y24120D02*
Y31880D01*
X25689Y59000D02*
X37500D01*
X25689Y80000D02*
X37500D01*
X59000Y20000D02*
X70811D01*
X122000Y62222D02*
Y69000D01*
Y84223D02*
Y91000D01*
X89130Y61870D02*
X96870D01*
X89000Y61740D02*
X89130Y61870D01*
X96870D02*
X97000Y62000D01*
X89130Y83870D02*
X96870D01*
X97000Y84000D01*
X89000Y83740D02*
X89130Y83870D01*
X73740Y84000D02*
X81000D01*
D37*
X163740Y8378D02*
X164118Y8000D01*
X163740Y8378D02*
Y8882D01*
D38*
X104732Y78720D02*
Y81279D01*
Y76161D02*
Y78720D01*
Y56721D02*
Y59280D01*
D39*
X134500Y42500D02*
D03*
D40*
X180000Y50000D02*
D03*
D41*
X10000Y65000D02*
D03*
Y55000D02*
D03*
Y45000D02*
D03*
Y35000D02*
D03*
X128000Y10000D02*
D03*
Y20000D02*
D03*
X98000D02*
D03*
Y10000D02*
D03*
X118000D02*
D03*
Y20000D02*
D03*
X108000D02*
D03*
Y10000D02*
D03*
D42*
X135000Y45000D02*
D03*
X151205Y13883D02*
D03*
X171000Y8000D02*
D03*
X22500Y32000D02*
D03*
X37500Y59000D02*
D03*
Y80000D02*
D03*
X59000Y20000D02*
D03*
X122000Y91000D02*
D03*
Y69000D02*
D03*
X97000Y62000D02*
D03*
Y84000D02*
D03*
X81000D02*
D03*
X180000Y59450D02*
D03*
X186682Y56682D02*
D03*
X189450Y50000D02*
D03*
X186682Y43318D02*
D03*
X180000Y40550D02*
D03*
X173318Y43318D02*
D03*
X170550Y50000D02*
D03*
X173318Y56682D02*
D03*
M02*
