G04*
G04 #@! TF.GenerationSoftware,Altium Limited,Altium Designer,22.0.2 (36)*
G04*
G04 Layer_Physical_Order=2*
G04 Layer_Color=16711680*
%FSLAX25Y25*%
%MOIN*%
G70*
G04*
G04 #@! TF.SameCoordinates,BC18DBC4-700C-47F8-9E1E-1F16E9EA7A44*
G04*
G04*
G04 #@! TF.FilePolarity,Positive*
G04*
G01*
G75*
%ADD13C,0.01000*%
%ADD40C,0.25000*%
%ADD41C,0.07000*%
%ADD42C,0.04400*%
G36*
X180000Y64500D02*
X178859D01*
X176605Y64143D01*
X174434Y63438D01*
X172400Y62401D01*
X170554Y61060D01*
X168940Y59446D01*
X167598Y57600D01*
X166562Y55566D01*
X165857Y53395D01*
X165500Y51141D01*
Y48859D01*
X165857Y46605D01*
X166562Y44434D01*
X167598Y42400D01*
X168940Y40554D01*
X170554Y38940D01*
X172400Y37598D01*
X174434Y36562D01*
X176605Y35857D01*
X178859Y35500D01*
X180000D01*
Y2039D01*
X2039D01*
Y97961D01*
X180000D01*
Y64500D01*
D02*
G37*
G36*
X197961Y2039D02*
X182039D01*
Y35500D01*
X182000Y35697D01*
Y64303D01*
X182039Y64500D01*
Y97961D01*
X197961D01*
Y2039D01*
D02*
G37*
%LPC*%
G36*
X122421Y94200D02*
X121579D01*
X120765Y93982D01*
X120330Y93731D01*
X122000Y92061D01*
X123670Y93731D01*
X123235Y93982D01*
X122421Y94200D01*
D02*
G37*
G36*
X124731Y92670D02*
X123061Y91000D01*
X124731Y89330D01*
X124982Y89765D01*
X125200Y90579D01*
Y91421D01*
X124982Y92235D01*
X124731Y92670D01*
D02*
G37*
G36*
X119269D02*
X119018Y92235D01*
X118800Y91421D01*
Y90579D01*
X119018Y89765D01*
X119269Y89330D01*
X120939Y91000D01*
X119269Y92670D01*
D02*
G37*
G36*
X122000Y89939D02*
X120330Y88269D01*
X120765Y88018D01*
X121579Y87800D01*
X122421D01*
X123235Y88018D01*
X123670Y88269D01*
X122000Y89939D01*
D02*
G37*
G36*
X97421Y87200D02*
X96579D01*
X95765Y86982D01*
X95330Y86731D01*
X97000Y85061D01*
X98670Y86731D01*
X98235Y86982D01*
X97421Y87200D01*
D02*
G37*
G36*
X81421D02*
X80579D01*
X79765Y86982D01*
X79330Y86731D01*
X81000Y85061D01*
X82670Y86731D01*
X82235Y86982D01*
X81421Y87200D01*
D02*
G37*
G36*
X83731Y85670D02*
X82061Y84000D01*
X83731Y82330D01*
X83982Y82765D01*
X84200Y83579D01*
Y84421D01*
X83982Y85235D01*
X83731Y85670D01*
D02*
G37*
G36*
X99731D02*
X98061Y84000D01*
X99731Y82330D01*
X99982Y82765D01*
X100200Y83579D01*
Y84421D01*
X99982Y85235D01*
X99731Y85670D01*
D02*
G37*
G36*
X78269D02*
X78018Y85235D01*
X77800Y84421D01*
Y83579D01*
X78018Y82765D01*
X78269Y82330D01*
X79939Y84000D01*
X78269Y85670D01*
D02*
G37*
G36*
X94269D02*
X94018Y85235D01*
X93800Y84421D01*
Y83579D01*
X94018Y82765D01*
X94269Y82330D01*
X95939Y84000D01*
X94269Y85670D01*
D02*
G37*
G36*
X37921Y83200D02*
X37079D01*
X36265Y82982D01*
X35830Y82731D01*
X37500Y81061D01*
X39170Y82731D01*
X38735Y82982D01*
X37921Y83200D01*
D02*
G37*
G36*
X97000Y82939D02*
X95330Y81269D01*
X95765Y81018D01*
X96579Y80800D01*
X97421D01*
X98235Y81018D01*
X98670Y81269D01*
X97000Y82939D01*
D02*
G37*
G36*
X81000D02*
X79330Y81269D01*
X79765Y81018D01*
X80579Y80800D01*
X81421D01*
X82235Y81018D01*
X82670Y81269D01*
X81000Y82939D01*
D02*
G37*
G36*
X40231Y81670D02*
X38561Y80000D01*
X40231Y78330D01*
X40482Y78765D01*
X40700Y79579D01*
Y80421D01*
X40482Y81235D01*
X40231Y81670D01*
D02*
G37*
G36*
X34769D02*
X34518Y81235D01*
X34300Y80421D01*
Y79579D01*
X34518Y78765D01*
X34769Y78330D01*
X36439Y80000D01*
X34769Y81670D01*
D02*
G37*
G36*
X37500Y78939D02*
X35830Y77269D01*
X36265Y77018D01*
X37079Y76800D01*
X37921D01*
X38735Y77018D01*
X39170Y77269D01*
X37500Y78939D01*
D02*
G37*
G36*
X122421Y72200D02*
X121579D01*
X120765Y71982D01*
X120330Y71731D01*
X122000Y70061D01*
X123670Y71731D01*
X123235Y71982D01*
X122421Y72200D01*
D02*
G37*
G36*
X124731Y70670D02*
X123061Y69000D01*
X124731Y67330D01*
X124982Y67765D01*
X125200Y68579D01*
Y69421D01*
X124982Y70235D01*
X124731Y70670D01*
D02*
G37*
G36*
X119269D02*
X119018Y70235D01*
X118800Y69421D01*
Y68579D01*
X119018Y67765D01*
X119269Y67330D01*
X120939Y69000D01*
X119269Y70670D01*
D02*
G37*
G36*
X122000Y67939D02*
X120330Y66269D01*
X120765Y66018D01*
X121579Y65800D01*
X122421D01*
X123235Y66018D01*
X123670Y66269D01*
X122000Y67939D01*
D02*
G37*
G36*
X97421Y65200D02*
X96579D01*
X95765Y64982D01*
X95330Y64731D01*
X97000Y63061D01*
X98670Y64731D01*
X98235Y64982D01*
X97421Y65200D01*
D02*
G37*
G36*
X10566Y69300D02*
X9434D01*
X8340Y69007D01*
X7360Y68441D01*
X6559Y67640D01*
X5993Y66660D01*
X5700Y65566D01*
Y64434D01*
X5993Y63340D01*
X6559Y62360D01*
X7360Y61559D01*
X8340Y60993D01*
X9434Y60700D01*
X10566D01*
X11660Y60993D01*
X12640Y61559D01*
X13441Y62360D01*
X14007Y63340D01*
X14300Y64434D01*
Y65566D01*
X14007Y66660D01*
X13441Y67640D01*
X12640Y68441D01*
X11660Y69007D01*
X10566Y69300D01*
D02*
G37*
G36*
X99731Y63670D02*
X98061Y62000D01*
X99731Y60330D01*
X99982Y60765D01*
X100200Y61579D01*
Y62421D01*
X99982Y63235D01*
X99731Y63670D01*
D02*
G37*
G36*
X94269D02*
X94018Y63235D01*
X93800Y62421D01*
Y61579D01*
X94018Y60765D01*
X94269Y60330D01*
X95939Y62000D01*
X94269Y63670D01*
D02*
G37*
G36*
X37921Y62200D02*
X37079D01*
X36265Y61982D01*
X35830Y61731D01*
X37500Y60061D01*
X39170Y61731D01*
X38735Y61982D01*
X37921Y62200D01*
D02*
G37*
G36*
X97000Y60939D02*
X95330Y59269D01*
X95765Y59018D01*
X96579Y58800D01*
X97421D01*
X98235Y59018D01*
X98670Y59269D01*
X97000Y60939D01*
D02*
G37*
G36*
X40231Y60670D02*
X38561Y59000D01*
X40231Y57330D01*
X40482Y57765D01*
X40700Y58579D01*
Y59421D01*
X40482Y60235D01*
X40231Y60670D01*
D02*
G37*
G36*
X34769D02*
X34518Y60235D01*
X34300Y59421D01*
Y58579D01*
X34518Y57765D01*
X34769Y57330D01*
X36439Y59000D01*
X34769Y60670D01*
D02*
G37*
G36*
X37500Y57939D02*
X35830Y56269D01*
X36265Y56018D01*
X37079Y55800D01*
X37921D01*
X38735Y56018D01*
X39170Y56269D01*
X37500Y57939D01*
D02*
G37*
G36*
X135421Y48200D02*
X134579D01*
X133765Y47982D01*
X133330Y47731D01*
X135000Y46061D01*
X136670Y47731D01*
X136235Y47982D01*
X135421Y48200D01*
D02*
G37*
G36*
X137731Y46670D02*
X136061Y45000D01*
X137731Y43330D01*
X137982Y43765D01*
X138200Y44579D01*
Y45421D01*
X137982Y46235D01*
X137731Y46670D01*
D02*
G37*
G36*
X132269D02*
X132018Y46235D01*
X131800Y45421D01*
Y44579D01*
X132018Y43765D01*
X132269Y43330D01*
X133939Y45000D01*
X132269Y46670D01*
D02*
G37*
G36*
X135000Y43939D02*
X133330Y42269D01*
X133765Y42018D01*
X134579Y41800D01*
X135421D01*
X136235Y42018D01*
X136670Y42269D01*
X135000Y43939D01*
D02*
G37*
G36*
X22921Y35200D02*
X22079D01*
X21265Y34982D01*
X20830Y34731D01*
X22500Y33061D01*
X24170Y34731D01*
X23735Y34982D01*
X22921Y35200D01*
D02*
G37*
G36*
X10566Y39300D02*
X9434D01*
X8340Y39007D01*
X7360Y38441D01*
X6559Y37640D01*
X5993Y36660D01*
X5700Y35566D01*
Y34434D01*
X5993Y33340D01*
X6559Y32360D01*
X7360Y31559D01*
X8340Y30993D01*
X9434Y30700D01*
X10566D01*
X11660Y30993D01*
X12640Y31559D01*
X13441Y32360D01*
X14007Y33340D01*
X14300Y34434D01*
Y35566D01*
X14007Y36660D01*
X13441Y37640D01*
X12640Y38441D01*
X11660Y39007D01*
X10566Y39300D01*
D02*
G37*
G36*
X25231Y33670D02*
X23561Y32000D01*
X25231Y30330D01*
X25482Y30765D01*
X25700Y31579D01*
Y32421D01*
X25482Y33235D01*
X25231Y33670D01*
D02*
G37*
G36*
X19769D02*
X19518Y33235D01*
X19300Y32421D01*
Y31579D01*
X19518Y30765D01*
X19769Y30330D01*
X21439Y32000D01*
X19769Y33670D01*
D02*
G37*
G36*
X22500Y30939D02*
X20830Y29269D01*
X21265Y29018D01*
X22079Y28800D01*
X22921D01*
X23735Y29018D01*
X24170Y29269D01*
X22500Y30939D01*
D02*
G37*
G36*
X59421Y23200D02*
X58579D01*
X57765Y22982D01*
X57330Y22731D01*
X59000Y21061D01*
X60670Y22731D01*
X60235Y22982D01*
X59421Y23200D01*
D02*
G37*
G36*
X61731Y21670D02*
X60061Y20000D01*
X61731Y18330D01*
X61982Y18765D01*
X62200Y19579D01*
Y20421D01*
X61982Y21235D01*
X61731Y21670D01*
D02*
G37*
G36*
X56269D02*
X56018Y21235D01*
X55800Y20421D01*
Y19579D01*
X56018Y18765D01*
X56269Y18330D01*
X57939Y20000D01*
X56269Y21670D01*
D02*
G37*
G36*
X59000Y18939D02*
X57330Y17269D01*
X57765Y17018D01*
X58579Y16800D01*
X59421D01*
X60235Y17018D01*
X60670Y17269D01*
X59000Y18939D01*
D02*
G37*
G36*
X128566Y24300D02*
X127434D01*
X126340Y24007D01*
X125360Y23441D01*
X124559Y22640D01*
X123993Y21660D01*
X123700Y20566D01*
Y19434D01*
X123993Y18340D01*
X124559Y17360D01*
X125360Y16559D01*
X126340Y15993D01*
X127434Y15700D01*
X128566D01*
X129660Y15993D01*
X130640Y16559D01*
X131441Y17360D01*
X132007Y18340D01*
X132300Y19434D01*
Y20566D01*
X132007Y21660D01*
X131441Y22640D01*
X130640Y23441D01*
X129660Y24007D01*
X128566Y24300D01*
D02*
G37*
G36*
X118566D02*
X117434D01*
X116340Y24007D01*
X115360Y23441D01*
X114559Y22640D01*
X113993Y21660D01*
X113700Y20566D01*
Y19434D01*
X113993Y18340D01*
X114559Y17360D01*
X115360Y16559D01*
X116340Y15993D01*
X117434Y15700D01*
X118566D01*
X119660Y15993D01*
X120640Y16559D01*
X121441Y17360D01*
X122007Y18340D01*
X122300Y19434D01*
Y20566D01*
X122007Y21660D01*
X121441Y22640D01*
X120640Y23441D01*
X119660Y24007D01*
X118566Y24300D01*
D02*
G37*
G36*
X108566D02*
X107434D01*
X106340Y24007D01*
X105360Y23441D01*
X104559Y22640D01*
X103993Y21660D01*
X103700Y20566D01*
Y19434D01*
X103993Y18340D01*
X104559Y17360D01*
X105360Y16559D01*
X106340Y15993D01*
X107434Y15700D01*
X108566D01*
X109660Y15993D01*
X110640Y16559D01*
X111441Y17360D01*
X112007Y18340D01*
X112300Y19434D01*
Y20566D01*
X112007Y21660D01*
X111441Y22640D01*
X110640Y23441D01*
X109660Y24007D01*
X108566Y24300D01*
D02*
G37*
G36*
X98566D02*
X97434D01*
X96340Y24007D01*
X95360Y23441D01*
X94559Y22640D01*
X93993Y21660D01*
X93700Y20566D01*
Y19434D01*
X93993Y18340D01*
X94559Y17360D01*
X95360Y16559D01*
X96340Y15993D01*
X97434Y15700D01*
X98566D01*
X99660Y15993D01*
X100640Y16559D01*
X101441Y17360D01*
X102007Y18340D01*
X102300Y19434D01*
Y20566D01*
X102007Y21660D01*
X101441Y22640D01*
X100640Y23441D01*
X99660Y24007D01*
X98566Y24300D01*
D02*
G37*
G36*
X151626Y17083D02*
X150783D01*
X149969Y16865D01*
X149534Y16614D01*
X151205Y14944D01*
X152875Y16614D01*
X152440Y16865D01*
X151626Y17083D01*
D02*
G37*
G36*
X153935Y15553D02*
X152265Y13883D01*
X153935Y12213D01*
X154187Y12648D01*
X154405Y13462D01*
Y14304D01*
X154187Y15118D01*
X153935Y15553D01*
D02*
G37*
G36*
X148474D02*
X148223Y15118D01*
X148005Y14304D01*
Y13462D01*
X148223Y12648D01*
X148474Y12213D01*
X150144Y13883D01*
X148474Y15553D01*
D02*
G37*
G36*
X151205Y12822D02*
X149534Y11152D01*
X149969Y10901D01*
X150783Y10683D01*
X151626D01*
X152440Y10901D01*
X152875Y11152D01*
X151205Y12822D01*
D02*
G37*
G36*
X171421Y11200D02*
X170579D01*
X169765Y10982D01*
X169330Y10731D01*
X171000Y9061D01*
X172670Y10731D01*
X172235Y10982D01*
X171421Y11200D01*
D02*
G37*
G36*
X173731Y9670D02*
X172061Y8000D01*
X173731Y6330D01*
X173982Y6765D01*
X174200Y7579D01*
Y8421D01*
X173982Y9235D01*
X173731Y9670D01*
D02*
G37*
G36*
X168269D02*
X168018Y9235D01*
X167800Y8421D01*
Y7579D01*
X168018Y6765D01*
X168269Y6330D01*
X169939Y8000D01*
X168269Y9670D01*
D02*
G37*
G36*
X128566Y14300D02*
X127434D01*
X126340Y14007D01*
X125360Y13441D01*
X124559Y12640D01*
X123993Y11660D01*
X123700Y10566D01*
Y9434D01*
X123993Y8340D01*
X124559Y7360D01*
X125360Y6559D01*
X126340Y5993D01*
X127434Y5700D01*
X128566D01*
X129660Y5993D01*
X130640Y6559D01*
X131441Y7360D01*
X132007Y8340D01*
X132300Y9434D01*
Y10566D01*
X132007Y11660D01*
X131441Y12640D01*
X130640Y13441D01*
X129660Y14007D01*
X128566Y14300D01*
D02*
G37*
G36*
X118566D02*
X117434D01*
X116340Y14007D01*
X115360Y13441D01*
X114559Y12640D01*
X113993Y11660D01*
X113700Y10566D01*
Y9434D01*
X113993Y8340D01*
X114559Y7360D01*
X115360Y6559D01*
X116340Y5993D01*
X117434Y5700D01*
X118566D01*
X119660Y5993D01*
X120640Y6559D01*
X121441Y7360D01*
X122007Y8340D01*
X122300Y9434D01*
Y10566D01*
X122007Y11660D01*
X121441Y12640D01*
X120640Y13441D01*
X119660Y14007D01*
X118566Y14300D01*
D02*
G37*
G36*
X108566D02*
X107434D01*
X106340Y14007D01*
X105360Y13441D01*
X104559Y12640D01*
X103993Y11660D01*
X103700Y10566D01*
Y9434D01*
X103993Y8340D01*
X104559Y7360D01*
X105360Y6559D01*
X106340Y5993D01*
X107434Y5700D01*
X108566D01*
X109660Y5993D01*
X110640Y6559D01*
X111441Y7360D01*
X112007Y8340D01*
X112300Y9434D01*
Y10566D01*
X112007Y11660D01*
X111441Y12640D01*
X110640Y13441D01*
X109660Y14007D01*
X108566Y14300D01*
D02*
G37*
G36*
X98566D02*
X97434D01*
X96340Y14007D01*
X95360Y13441D01*
X94559Y12640D01*
X93993Y11660D01*
X93700Y10566D01*
Y9434D01*
X93993Y8340D01*
X94559Y7360D01*
X95360Y6559D01*
X96340Y5993D01*
X97434Y5700D01*
X98566D01*
X99660Y5993D01*
X100640Y6559D01*
X101441Y7360D01*
X102007Y8340D01*
X102300Y9434D01*
Y10566D01*
X102007Y11660D01*
X101441Y12640D01*
X100640Y13441D01*
X99660Y14007D01*
X98566Y14300D01*
D02*
G37*
G36*
X171000Y6939D02*
X169330Y5269D01*
X169765Y5018D01*
X170579Y4800D01*
X171421D01*
X172235Y5018D01*
X172670Y5269D01*
X171000Y6939D01*
D02*
G37*
%LPD*%
D13*
X189450Y50000D02*
X189397Y51004D01*
X189236Y51998D01*
X188972Y52968D01*
X188605Y53905D01*
X188142Y54797D01*
X187586Y55636D01*
X186944Y56410D01*
X186223Y57112D01*
X185432Y57733D01*
X184579Y58267D01*
X183674Y58706D01*
X182728Y59048D01*
X181751Y59286D01*
X180754Y59420D01*
X179748Y59447D01*
X178746Y59366D01*
X177757Y59180D01*
X176794Y58890D01*
X175867Y58499D01*
X174987Y58011D01*
X174164Y57433D01*
X173407Y56770D01*
X172725Y56031D01*
X172125Y55224D01*
X171615Y54357D01*
X171199Y53441D01*
X170883Y52486D01*
X170670Y51503D01*
X170563Y50503D01*
Y49497D01*
X170670Y48497D01*
X170883Y47514D01*
X171199Y46559D01*
X171615Y45643D01*
X172125Y44776D01*
X172725Y43969D01*
X173407Y43229D01*
X174164Y42567D01*
X174987Y41989D01*
X175867Y41502D01*
X176794Y41110D01*
X177757Y40820D01*
X178746Y40634D01*
X179748Y40553D01*
X180754Y40580D01*
X181751Y40714D01*
X182728Y40952D01*
X183674Y41294D01*
X184579Y41734D01*
X185432Y42267D01*
X186223Y42888D01*
X186944Y43590D01*
X187586Y44364D01*
X188142Y45203D01*
X188605Y46095D01*
X188972Y47032D01*
X189236Y48002D01*
X189397Y48996D01*
X189450Y50000D01*
D40*
X180000Y50000D02*
D03*
D41*
X10000Y65000D02*
D03*
Y55000D02*
D03*
Y45000D02*
D03*
Y35000D02*
D03*
X128000Y10000D02*
D03*
Y20000D02*
D03*
X98000D02*
D03*
Y10000D02*
D03*
X118000D02*
D03*
Y20000D02*
D03*
X108000D02*
D03*
Y10000D02*
D03*
D42*
X135000Y45000D02*
D03*
X151205Y13883D02*
D03*
X171000Y8000D02*
D03*
X22500Y32000D02*
D03*
X37500Y59000D02*
D03*
Y80000D02*
D03*
X59000Y20000D02*
D03*
X122000Y91000D02*
D03*
Y69000D02*
D03*
X97000Y62000D02*
D03*
Y84000D02*
D03*
X81000D02*
D03*
X180000Y59450D02*
D03*
X186682Y56682D02*
D03*
X189450Y50000D02*
D03*
X186682Y43318D02*
D03*
X180000Y40550D02*
D03*
X173318Y43318D02*
D03*
X170550Y50000D02*
D03*
X173318Y56682D02*
D03*
M02*
